<svg xmlns="http://www.w3.org/2000/svg" viewBox="0 0 200 200">
  <!-- Hintergrund-Kreis -->
  <circle cx="100" cy="100" r="95" fill="#2563eb"/>
  
  <!-- Auto-Silhouette -->
  <g fill="#ffffff">
    <!-- Karosserie -->
    <path d="M35 115 L45 85 Q50 75 65 75 L135 75 Q150 75 155 85 L165 115 Q170 125 165 130 L35 130 Q30 125 35 115 Z"/>
    <!-- Fenster -->
    <path d="M55 90 L60 80 Q62 78 70 78 L130 78 Q138 78 140 80 L145 90 Q147 95 140 95 L60 95 Q53 95 55 90 Z" fill="#2563eb"/>
    <!-- Räder -->
    <circle cx="65" cy="130" r="18" fill="#1e40af"/>
    <circle cx="65" cy="130" r="10" fill="#ffffff"/>
    <circle cx="135" cy="130" r="18" fill="#1e40af"/>
    <circle cx="135" cy="130" r="10" fill="#ffffff"/>
  </g>
  
  <!-- Checkmark -->
  <g transform="translate(125, 45)">
    <circle cx="25" cy="25" r="28" fill="#22c55e"/>
    <path d="M15 25 L22 32 L38 16" stroke="#ffffff" stroke-width="5" fill="none" stroke-linecap="round" stroke-linejoin="round"/>
  </g>
</svg>
